<svg width="18" height="31" viewBox="0 0 18 31" fill="none" xmlns="http://www.w3.org/2000/svg">
<g clip-path="url(#clip0_171_675)">
<path fill-rule="evenodd" clip-rule="evenodd" d="M7.85237 0.0845462C5.91368 0.415132 4.12637 1.23833 3.03912 2.30141C2.27647 3.0471 1.44968 4.17412 1.44968 4.46802C1.44968 4.56284 1.74783 5.12628 2.11218 5.72001C2.83206 6.89341 3.14096 7.74494 3.14096 8.55663C3.14096 9.0404 3.10749 9.09428 2.66631 9.31988C1.33854 9.99885 0.00364182 11.5647 0.00110491 12.4463C-0.0013112 13.3145 0.694407 14.3112 1.80557 15.031C2.10094 15.2224 2.37276 15.3788 2.4096 15.3786C2.44645 15.3784 2.48088 15.0106 2.48619 14.5612C2.49839 13.5367 2.80343 12.8157 3.57356 11.9904C3.88729 11.6542 4.12214 11.3637 4.09544 11.3449C4.06886 11.3262 3.89599 11.2458 3.7114 11.1662C3.52681 11.0868 3.34222 10.9339 3.30115 10.8268C3.17418 10.495 3.51135 10.4209 4.09822 10.6514C4.40229 10.7708 5.05874 10.9422 5.55706 11.032C6.77442 11.2517 10.6491 11.2534 11.8389 11.0347C13.0832 10.8059 14.304 10.3767 14.8102 9.98977C15.2394 9.66149 15.5839 9.65616 15.5839 9.97766C15.5839 10.0748 15.4387 10.2688 15.2612 10.4088C15.0792 10.5523 14.987 10.7042 15.0498 10.7573C15.111 10.809 15.3633 10.9997 15.6106 11.1811L16.0601 11.5108L16.6979 10.5992C17.6201 9.28101 17.8792 8.75062 17.8792 8.18172C17.8792 7.61827 17.6091 7.14455 17.2879 7.14455C17.1695 7.14455 16.5098 7.4204 15.822 7.75753C15.1342 8.09478 14.2692 8.45031 13.8998 8.54779C13.0799 8.76418 10.0495 8.89678 9.30203 8.74905L8.75841 8.64151L9.96646 8.36808C10.6309 8.21769 11.262 8.07032 11.369 8.04065C11.5366 7.99415 11.4282 7.45625 10.5835 4.1447C10.0445 2.03161 9.55971 0.234702 9.50607 0.15139C9.4116 0.00474546 8.52948 -0.0309772 7.85237 0.0845462ZM12.3371 4.14748C12.5893 6.09552 12.7977 7.73028 12.8004 7.7803C12.8031 7.83019 13.0516 7.87112 13.3524 7.87112H13.8994L13.832 7.11428C13.795 6.69808 13.6827 5.16104 13.5824 3.69883C13.4823 2.23662 13.3888 1.03501 13.3746 1.02859C13.2868 0.988269 11.9879 0.605491 11.939 0.605491C11.906 0.605491 12.0851 2.19945 12.3371 4.14748ZM13.7718 11.1564C13.4612 11.2812 12.3559 11.5439 11.5843 11.676C11.2045 11.741 11.1555 11.7878 11.2035 12.0393C11.3938 13.0369 9.18449 13.2686 8.89129 12.2818L8.78245 11.9158L7.07921 11.7791C6.14237 11.7039 5.28936 11.6087 5.18366 11.5675C4.89602 11.4556 3.82012 12.4861 3.45239 13.2258C3.05966 14.0158 3.02716 15.1763 3.37604 15.9469C4.0708 17.4808 6.13174 18.7358 8.61489 19.1371C9.73923 19.3188 11.6864 19.2277 12.745 18.9438C14.5726 18.4536 16.0595 17.4152 16.6609 16.209C17.5282 14.4692 16.905 12.7669 14.931 11.4833C14.1442 10.9718 14.195 10.9861 13.7718 11.1564ZM5.84386 13.5898C4.61466 13.8418 4.58966 15.0526 5.80689 15.3811C6.99139 15.7009 7.99999 15.0101 7.6569 14.114C7.49551 13.6923 6.60251 13.4342 5.84386 13.5898ZM13.034 13.7565C11.8089 14.2667 12.3434 15.528 13.7849 15.528C14.6908 15.528 15.3342 14.998 15.1793 14.3794C15.1269 14.17 14.9317 13.9865 14.5798 13.8157C13.9703 13.52 13.633 13.5071 13.034 13.7565ZM9.54364 14.3496C9.23909 14.7175 9.86003 15.0441 10.4398 14.821C10.6869 14.726 10.6869 14.3366 10.4398 14.2415C10.1056 14.1129 9.699 14.1621 9.54364 14.3496ZM9.03324 16.2943C8.3821 16.6485 8.29367 17.1718 8.79912 17.6786C9.44289 18.3239 10.8168 18.2784 11.3538 17.5941C11.6889 17.1671 11.662 16.9937 11.1866 16.5172C10.8114 16.1411 10.7147 16.1059 10.0691 16.1103C9.68039 16.113 9.21433 16.1958 9.03324 16.2943ZM4.12468 18.9678C4.16297 19.9404 4.20682 20.1187 4.51766 20.5682C4.99339 21.2558 6.10274 21.9705 7.28978 22.354C8.05049 22.5999 8.60583 22.6857 9.72485 22.7307C11.5268 22.8031 12.6003 22.5979 13.9756 21.9182C15.5497 21.1403 16.1262 20.258 16.0441 18.7521L16.0067 18.0685L15.2319 18.5389C13.5808 19.541 11.9361 19.9216 9.67327 19.8252C7.55096 19.7349 5.78551 19.1759 4.48709 18.1833L4.08155 17.8733L4.12468 18.9678ZM16.6748 19.1328C16.6706 19.695 16.588 20.093 16.3863 20.5254C15.5885 22.235 13.0702 23.3919 10.1477 23.3915C8.02222 23.3911 6.31488 22.9048 5.03881 21.9362C4.16237 21.2709 3.64568 20.4892 3.44696 19.5278L3.30272 18.8301L3.21199 19.3403C3.07294 20.1222 3.38897 21.0376 4.05376 21.7789C6.64117 24.6635 12.9604 24.8888 15.941 22.2026C16.72 21.5005 17.2107 20.4144 17.1149 19.604C17.0771 19.2832 16.9639 18.869 16.8635 18.6832C16.6844 18.3523 16.6807 18.3611 16.6748 19.1328ZM2.83677 23.4399C1.81488 24.0762 1.63536 24.2345 1.66025 24.4772C1.67631 24.6347 1.96782 25.3302 2.308 26.0226C3.41953 28.2852 5.14681 29.6834 7.773 30.4461C9.90014 31.0641 11.1511 30.9857 12.8595 30.1278C14.5532 29.2771 15.8266 28.1052 16.8653 26.4411C17.3662 25.6388 17.8792 24.4372 17.8792 24.0667C17.8792 23.9797 17.469 23.7051 16.9675 23.4564L16.0559 23.0042L15.5072 23.3266C15.0154 23.6155 14.9679 23.6816 15.049 23.9641C15.0988 24.1375 15.1444 24.6384 15.1503 25.0771C15.1598 25.7741 15.1158 25.9404 14.8023 26.3936C14.6049 26.6789 14.3318 26.9634 14.1955 27.0256C14.0591 27.0878 13.795 27.4309 13.6085 27.7878C13.2036 28.5631 12.972 28.7895 12.3603 29.0081C11.2598 29.4016 10.2925 29.1394 9.2014 28.1519C8.84708 27.8312 8.38633 27.4826 8.17757 27.3773C7.67732 27.1245 7.1378 26.3326 7.0559 25.7305C7.01978 25.4652 6.88012 24.9983 6.74555 24.6929C6.53474 24.2144 6.40294 24.0926 5.79227 23.8117C5.40268 23.6323 4.84951 23.3065 4.5632 23.0874L4.04265 22.689L2.83677 23.4399ZM13.7718 24.3026C13.6722 24.3383 13.2501 24.586 12.8339 24.8533C12.1588 25.2868 11.9893 25.3416 11.2634 25.36C10.6253 25.3762 10.2628 25.3075 9.58387 25.0418C8.547 24.6362 7.91567 24.6005 7.73579 24.9373C7.47255 25.4303 7.61788 26.0466 8.1301 26.6104C8.44902 26.9613 9.27183 26.9737 10.0087 26.6385C10.3788 26.4701 10.6688 26.421 10.9893 26.4724C11.2395 26.5125 11.5554 26.4858 11.6911 26.413C11.8778 26.3128 12.0426 26.3245 12.3677 26.4606C12.8672 26.6698 13.5659 26.6949 13.9001 26.5156C14.2183 26.3448 14.6399 25.482 14.6543 24.9721C14.6705 24.4003 14.2953 24.1156 13.7718 24.3026Z" fill="#272727"/>
</g>
<defs>
<clipPath id="clip0_171_675">
<rect width="18" height="31" fill="white"/>
</clipPath>
</defs>
</svg>
